<svg width="212" height="212" viewBox="0 0 212 212" fill="none" xmlns="http://www.w3.org/2000/svg">
<path fill-rule="evenodd" clip-rule="evenodd" d="M179.576 180.797C160.525 199.54 134.389 211.104 105.552 211.104C76.7787 211.104 50.6944 199.591 31.6544 180.92C74.8806 146.876 136.305 146.835 179.576 180.797ZM180.796 179.577C199.54 160.526 211.104 134.39 211.104 105.552C211.104 76.7866 199.597 50.7087 180.936 31.6701C146.876 75.0129 146.83 136.321 180.796 179.577ZM179.735 30.4649C136.403 64.5945 74.7823 64.5531 31.4946 30.3408C50.5483 11.5776 76.6981 0 105.552 0C134.47 0 160.671 11.6287 179.735 30.4649ZM30.3408 31.4946C11.5776 50.5483 0 76.6981 0 105.552C0 134.47 11.6287 160.671 30.4649 179.735C64.5945 136.403 64.5531 74.7823 30.3408 31.4946Z" fill="white"/>
</svg>
